<mxfile host="app.diagrams.net" agent="Mozilla/5.0 (Macintosh; Intel Mac OS X 10_15_7) AppleWebKit/537.36 (KHTML, like Gecko) Chrome/138.0.0.0 Safari/537.36" version="27.2.0">
  <diagram name="Page-1" id="hqtawfJK3MxksaqcEBKM">
    <mxGraphModel dx="1234" dy="824" grid="1" gridSize="10" guides="1" tooltips="1" connect="1" arrows="1" fold="1" page="1" pageScale="1" pageWidth="850" pageHeight="1100" math="0" shadow="0" adaptiveColors="none">
      <root>
        <mxCell id="0" />
        <mxCell id="1" parent="0" />
        <mxCell id="60jT7bURnB9-HVp7pVe_-12" value="" style="whiteSpace=wrap;html=1;dashed=1;fillColor=none;strokeColor=#b85450;" vertex="1" parent="1">
          <mxGeometry x="120" y="240" width="260" height="310" as="geometry" />
        </mxCell>
        <mxCell id="60jT7bURnB9-HVp7pVe_-2" value="AWS Organization" style="points=[[0,0],[0.25,0],[0.5,0],[0.75,0],[1,0],[1,0.25],[1,0.5],[1,0.75],[1,1],[0.75,1],[0.5,1],[0.25,1],[0,1],[0,0.75],[0,0.5],[0,0.25]];outlineConnect=0;gradientColor=none;html=1;whiteSpace=wrap;fontSize=12;fontStyle=0;container=1;pointerEvents=0;collapsible=0;recursiveResize=0;shape=mxgraph.aws4.group;grIcon=mxgraph.aws4.group_account;strokeColor=#CD2264;fillColor=none;verticalAlign=top;align=left;spacingLeft=30;fontColor=#CD2264;dashed=0;" vertex="1" parent="1">
          <mxGeometry x="80" y="180" width="630" height="410" as="geometry" />
        </mxCell>
        <mxCell id="60jT7bURnB9-HVp7pVe_-17" value="" style="whiteSpace=wrap;html=1;dashed=1;fillColor=none;strokeColor=#b85450;" vertex="1" parent="60jT7bURnB9-HVp7pVe_-2">
          <mxGeometry x="340" y="60" width="260" height="310" as="geometry" />
        </mxCell>
        <mxCell id="60jT7bURnB9-HVp7pVe_-19" value="&lt;span style=&quot;color: rgb(205, 34, 100); text-align: left;&quot;&gt;AWS Account B&lt;/span&gt;" style="text;strokeColor=none;align=center;fillColor=none;html=1;verticalAlign=middle;whiteSpace=wrap;rounded=0;" vertex="1" parent="60jT7bURnB9-HVp7pVe_-2">
          <mxGeometry x="370" y="60" width="90" height="30" as="geometry" />
        </mxCell>
        <mxCell id="60jT7bURnB9-HVp7pVe_-13" value="Shared VPC" style="points=[[0,0],[0.25,0],[0.5,0],[0.75,0],[1,0],[1,0.25],[1,0.5],[1,0.75],[1,1],[0.75,1],[0.5,1],[0.25,1],[0,1],[0,0.75],[0,0.5],[0,0.25]];outlineConnect=0;gradientColor=none;html=1;whiteSpace=wrap;fontSize=12;fontStyle=0;container=1;pointerEvents=0;collapsible=0;recursiveResize=0;shape=mxgraph.aws4.group;grIcon=mxgraph.aws4.group_vpc2;strokeColor=#8C4FFF;fillColor=none;verticalAlign=top;align=left;spacingLeft=30;fontColor=#AAB7B8;dashed=0;" vertex="1" parent="60jT7bURnB9-HVp7pVe_-2">
          <mxGeometry x="50" y="108" width="535" height="240" as="geometry" />
        </mxCell>
        <mxCell id="60jT7bURnB9-HVp7pVe_-15" value="Private subnet" style="points=[[0,0],[0.25,0],[0.5,0],[0.75,0],[1,0],[1,0.25],[1,0.5],[1,0.75],[1,1],[0.75,1],[0.5,1],[0.25,1],[0,1],[0,0.75],[0,0.5],[0,0.25]];outlineConnect=0;gradientColor=none;html=1;whiteSpace=wrap;fontSize=12;fontStyle=0;container=1;pointerEvents=0;collapsible=0;recursiveResize=0;shape=mxgraph.aws4.group;grIcon=mxgraph.aws4.group_security_group;grStroke=0;strokeColor=#00A4A6;fillColor=#E6F6F7;verticalAlign=top;align=left;spacingLeft=30;fontColor=#147EBA;dashed=0;" vertex="1" parent="60jT7bURnB9-HVp7pVe_-13">
          <mxGeometry x="17.5" y="140" width="500" height="80" as="geometry" />
        </mxCell>
        <mxCell id="60jT7bURnB9-HVp7pVe_-14" value="Public subnet" style="points=[[0,0],[0.25,0],[0.5,0],[0.75,0],[1,0],[1,0.25],[1,0.5],[1,0.75],[1,1],[0.75,1],[0.5,1],[0.25,1],[0,1],[0,0.75],[0,0.5],[0,0.25]];outlineConnect=0;gradientColor=none;html=1;whiteSpace=wrap;fontSize=12;fontStyle=0;container=1;pointerEvents=0;collapsible=0;recursiveResize=0;shape=mxgraph.aws4.group;grIcon=mxgraph.aws4.group_security_group;grStroke=0;strokeColor=#7AA116;fillColor=#F2F6E8;verticalAlign=top;align=left;spacingLeft=30;fontColor=#248814;dashed=0;" vertex="1" parent="60jT7bURnB9-HVp7pVe_-13">
          <mxGeometry x="20" y="45" width="210" height="81" as="geometry" />
        </mxCell>
        <mxCell id="60jT7bURnB9-HVp7pVe_-21" value="" style="sketch=0;outlineConnect=0;fontColor=#232F3E;gradientColor=none;fillColor=#E7157B;strokeColor=none;dashed=0;verticalLabelPosition=bottom;verticalAlign=top;align=center;html=1;fontSize=12;fontStyle=0;aspect=fixed;pointerEvents=1;shape=mxgraph.aws4.organizations_account;" vertex="1" parent="60jT7bURnB9-HVp7pVe_-2">
          <mxGeometry x="341.54" y="62" width="28.46" height="30" as="geometry" />
        </mxCell>
        <mxCell id="60jT7bURnB9-HVp7pVe_-16" value="&lt;span style=&quot;color: rgb(205, 34, 100); text-align: left;&quot;&gt;AWS Account A (VPC owner)&lt;/span&gt;" style="text;strokeColor=none;align=center;fillColor=none;html=1;verticalAlign=middle;whiteSpace=wrap;rounded=0;" vertex="1" parent="1">
          <mxGeometry x="150" y="240" width="170" height="30" as="geometry" />
        </mxCell>
        <mxCell id="60jT7bURnB9-HVp7pVe_-20" value="" style="sketch=0;outlineConnect=0;fontColor=#232F3E;gradientColor=none;fillColor=#E7157B;strokeColor=none;dashed=0;verticalLabelPosition=bottom;verticalAlign=top;align=center;html=1;fontSize=12;fontStyle=0;aspect=fixed;pointerEvents=1;shape=mxgraph.aws4.organizations_account;" vertex="1" parent="1">
          <mxGeometry x="121.54" y="242" width="28.46" height="30" as="geometry" />
        </mxCell>
      </root>
    </mxGraphModel>
  </diagram>
</mxfile>
